# xmcd CD database file
#
# Track frame offsets:
#	150
#	15004
#	33510
#	53206
#	73380
#	104961
#	125035
#	144873
#	162122
#	181064
#	211592
#	233379
#	255772
#	271836
#	287773
#
# Disc length: 4035 seconds
#
# Revision: 0
# Processed by: cddbd v1.5.2PL0 Copyright (c) Steve Scherf et al.
# Submitted via: CDex 1.51
#
DISCID=c50fc10f
DTITLE=Salsa_1 - Salsa_CD_1
DYEAR=2008
DGENRE=Salsa
TTITLE0=01 El Carretero - 01 El Carretero
TTITLE1=01 Obsesion [Dance Remix - 01 Obsesion [Dance Remix]
TTITLE2=01 - Pintame
TTITLE3=01 - Suavemente
TTITLE4=01 Titel 1 - 01 Titel 1
TTITLE5=03 Luna Llena - 03 Luna Llena
TTITLE6=03 Titel 3 - 03 Titel 3
TTITLE7=04 Me Arrepiento - 04 Me Arrepiento
TTITLE8=04 Solo Me Miro - 04 Solo Me Miro
TTITLE9=04 Titel 4 - 04 Titel 4
TTITLE10=05 - Princesita
TTITLE11=05 Titel 5 - 05 Titel 5
TTITLE12=06 Dame Cari - o
TTITLE13=09 Titel 9 - 09 Titel 9
TTITLE14=11 Titel 11 - 11 Titel 11
EXTD=YEAR: 2008
EXTT0=
EXTT1=
EXTT2=
EXTT3=
EXTT4=
EXTT5=
EXTT6=
EXTT7=
EXTT8=
EXTT9=
EXTT10=
EXTT11=
EXTT12=
EXTT13=
EXTT14=
PLAYORDER=
